<?xml version="1.0" encoding="utf-8"?>
<!-- Generator: Adobe Illustrator 18.1.1, SVG Export Plug-In . SVG Version: 6.00 Build 0)  -->
<!DOCTYPE svg PUBLIC "-//W3C//DTD SVG 1.1//EN" "http://www.w3.org/Graphics/SVG/1.1/DTD/svg11.dtd">
<svg version="1.1" id="Calque_1" xmlns="http://www.w3.org/2000/svg" xmlns:xlink="http://www.w3.org/1999/xlink" x="0px" y="0px"
	 viewBox="42.4 143.6 504.7 88.9" enable-background="new 42.4 143.6 504.7 88.9" xml:space="preserve">
<g>
	<defs>
		<filter id="Adobe_OpacityMaskFilter" filterUnits="userSpaceOnUse" x="265.8" y="226.2" width="25.4" height="6.2">
			<feFlood  style="flood-color:white;flood-opacity:1" result="back"/>
			<feBlend  in="SourceGraphic" in2="back" mode="normal"/>
		</filter>
	</defs>
	<mask maskUnits="userSpaceOnUse" x="265.8" y="226.2" width="25.4" height="6.2" id="SVGID_1_">
		<g filter="url(#Adobe_OpacityMaskFilter)">
			
				<image overflow="visible" width="31" height="11" xlink:href="1AE616D52C7AF5C3.jpg"  transform="matrix(1 0 0 1 263.0225 223.4393)">
			</image>
		</g>
	</mask>
	<g mask="url(#SVGID_1_)">
		<ellipse cx="278.5" cy="229.3" rx="11.7" ry="2.1"/>
		<path d="M278.5,232.4c-3.8,0-12.7-0.3-12.7-3.1c0-2.8,8.9-3.1,12.7-3.1c3.8,0,12.7,0.3,12.7,3.1
			C291.2,232.1,282.3,232.4,278.5,232.4z M268.3,229.3c1.4,0.5,4.8,1.1,10.2,1.1c5.4,0,8.8-0.6,10.2-1.1c-1.4-0.5-4.8-1.1-10.2-1.1
			C273.2,228.2,269.7,228.8,268.3,229.3z"/>
	</g>
</g>
<path fill="none" d="M459.9,163c0-6.3-4.3-9.5-12.9-9.5h-3.3v19.6h3C455.4,173.1,459.9,169.7,459.9,163z"/>
<path fill="none" d="M55.9,153.5h-4.2v44.2h4.2c4.2,0,7.7-0.4,10.4-1.3c2.8-0.9,5.3-2.4,7.5-4.4c4.6-4.2,6.9-9.6,6.9-16.3
	c0-6.8-2.3-12.3-6.8-16.5C69.8,155.4,63.8,153.5,55.9,153.5z"/>
<path fill="#1D1D1B" d="M80.5,152.7c-3.1-2.9-6.6-4.9-10.5-6.1c-3.6-1.2-8.5-1.8-14.7-1.8H42.4v61.7h12.8c6.3,0,11.1-0.6,14.5-1.7
	c3.6-1.1,7.1-3.2,10.5-6.1c6.6-5.9,9.9-13.5,9.9-23C90.1,166.1,86.9,158.5,80.5,152.7z M73.8,191.9c-2.2,2-4.7,3.5-7.5,4.4
	c-2.8,0.9-6.2,1.3-10.4,1.3h-4.2v-44.2h4.2c7.9,0,13.9,1.9,18,5.6c4.5,4.2,6.8,9.7,6.8,16.5C80.7,182.3,78.4,187.8,73.8,191.9z"/>
<rect x="105.9" y="144.8" fill="#1D1D1B" width="9.3" height="61.7"/>
<path fill="#1D1D1B" d="M156.1,169.7l-6.2-2.5c-4.5-1.8-6.7-4.3-6.7-7.3c0-2.2,0.9-4,2.6-5.4c1.7-1.5,3.8-2.2,6.4-2.2
	c2.1,0,3.8,0.4,5.2,1.3c1.3,0.7,2.6,2.3,4,4.8l7.6-4.5c-4-6.9-9.5-10.3-16.7-10.3c-5.3,0-9.7,1.6-13.2,4.7c-3.5,3.1-5.3,7-5.3,11.6
	c0,6.9,4.2,12.1,12.7,15.7l6,2.5c1.5,0.7,2.9,1.4,4,2.1c1.1,0.7,2,1.5,2.7,2.4c0.7,0.8,1.2,1.8,1.6,2.8c0.3,1,0.5,2.1,0.5,3.3
	c0,3-1,5.4-2.9,7.4c-1.9,1.9-4.3,2.9-7.2,2.9c-3.7,0-6.5-1.3-8.4-4c-1.1-1.4-1.8-3.9-2.2-7.5l-9.4,2.1c0.9,5.8,3,10.2,6.4,13.4
	c3.5,3.2,7.9,4.8,13.3,4.8c5.6,0,10.4-1.9,14.2-5.6c3.8-3.7,5.7-8.4,5.7-14.1c0-4.2-1.2-7.8-3.5-10.7
	C164.8,174.2,161.1,171.8,156.1,169.7z"/>
<path fill="#1D1D1B" d="M190.6,154.9c-5.2,6.2-7.8,13.2-7.8,21c0,8.8,3.1,16.2,9.3,22.5c6.2,6.2,13.8,9.2,22.6,9.2
	c5.9,0,11.5-1.5,16.8-4.5v-11.2c-1.5,1.3-3,2.4-4.3,3.3c-1.4,0.9-2.7,1.6-4,2.2c-2.3,1.1-5.1,1.6-8.4,1.6c-6.3,0-11.7-2.2-16.1-6.7
	c-4.4-4.4-6.6-9.9-6.6-16.4c0-6.6,2.2-12.1,6.6-16.6c4.3-4.6,9.7-6.8,16-6.8c5.8,0,11.3,2.3,16.7,6.8v-11c-5.2-3-10.5-4.5-16.1-4.5
	C205.3,143.6,197,147.3,190.6,154.9z"/>
<g>
	<path fill="#1D1D1B" d="M300.2,152.5c-6-6-13.2-9-21.6-9c-0.1,0-0.1,0-0.2,0c-0.1,0-0.1,0-0.2,0c-8.4,0-15.6,3-21.6,9
		c-6,6-9,13.2-9,21.6c0,8.5,3.6,14.4,9.1,21.5c6.7,8.5,21.1,25.4,21.1,25.4s15.6-16.9,22.2-25.4c5.5-7.1,9.1-13.1,9.1-21.5
		C309.3,165.7,306.2,158.5,300.2,152.5z M293.3,189c-4,4-9,6.1-14.8,6.1c-5.8,0-10.8-2.1-14.8-6.1c-4.1-4.1-6.1-9.2-6.1-15.1
		c0-6,2-11.1,6-15.1c4-4.1,8.9-6.1,14.8-6.1c0,0,0,0,0,0c0,0,0,0,0,0c5.9,0,10.9,2,14.8,6.1c4,4.1,6,9.1,6,15.1
		C299.4,179.8,297.4,184.8,293.3,189z"/>
</g>
<polygon fill="#1D1D1B" points="372.2,144.8 362,144.8 344.7,187.5 327.7,144.8 317.5,144.8 344.5,211.1 "/>
<polygon fill="#1D1D1B" points="384,206.5 418,206.5 418,197.7 393.3,197.7 393.3,177.1 417.3,177.1 417.3,168.3 393.3,168.3 
	393.3,153.5 418,153.5 418,144.8 384,144.8 "/>
<path fill="#1D1D1B" d="M465.2,174.1c2.5-3.1,3.8-6.9,3.8-11.3c0-5.6-2-10.1-6-13.5c-3.6-3.1-9.5-4.6-17.7-4.6h-10.9v61.7h9.3v-25.3
	h1.7l17.6,25.3h11.4l-19.1-26.3C459.4,179.3,462.7,177.3,465.2,174.1z M443.7,173.1v-19.6h3.3c8.6,0,12.9,3.2,12.9,9.5
	c0,6.7-4.4,10.1-13.2,10.1H443.7z"/>
<rect x="487.7" y="144.8" fill="#1D1D1B" width="9.3" height="61.7"/>
<polygon fill="#1D1D1B" points="509.5,144.8 509.5,153.5 523.7,153.5 523.7,206.5 533,206.5 533,153.5 547.1,153.5 547.1,144.8 "/>
</svg>
