<?xml version="1.0" encoding="utf-8"?>
<!-- Generator: Adobe Illustrator 18.1.0, SVG Export Plug-In . SVG Version: 6.00 Build 0)  -->
<!DOCTYPE svg PUBLIC "-//W3C//DTD SVG 1.1//EN" "http://www.w3.org/Graphics/SVG/1.1/DTD/svg11.dtd">
<svg version="1.1" id="Calque_1" xmlns="http://www.w3.org/2000/svg" xmlns:xlink="http://www.w3.org/1999/xlink" x="0px" y="0px"
	 viewBox="0 0 1521.6 205.1" enable-background="new 0 0 1521.6 205.1" xml:space="preserve">
<path fill="none" d="M1245.2,112.2c1.4-0.6,2.2-0.9,3-1.2c27-8.8,41.2-31.5,37.4-59.9c-3.2-23.9-20.8-41.2-47.2-44.1
	c-17.2-1.9-34.6-1.5-51.9-2.1c-1.4,0-2.9,0.2-4.4,0.3c0,62.1,0,123.8,0,185.4c9.4,0,18.5,0,28,0c0-25.4,0-50.3,0-75.2
	c0.5-0.4,0.9-0.8,1.4-1.2c2,1.5,4.5,2.5,5.8,4.4c16,22.7,31.9,45.6,47.9,68.4c1.1,1.6,2.7,3.8,4.1,3.9c10.7,0.3,21.5,0.2,33.3,0.2
	C1283,164.4,1264.3,138.6,1245.2,112.2z M1130.1,102.2c0-9.2,0-17.5,0-26.4c-24.2,0-48.1,0-71.9,0c0-15.1,0-29.5,0-44.6
	c24.9,0,49.4,0,74.1,0c0-9,0-17.4,0-25.9c-34.3,0-68.2,0-102.1,0c0,62.1,0,123.8,0,185.4c34.3,0,68.2,0,102.1,0c0-8.8,0-17.2,0-26.1
	c-25,0-49.5,0-74,0c0-21,0-41.4,0-62.4c12.1,0,23.9,0,35.7,0C1105.8,102.2,1117.8,102.2,1130.1,102.2z M267.2,140.2
	c3.1,28.9,22.6,55.8,61.8,54.6c39.3-1.2,67.3-38.2,54.3-78.6c-4.7-14.5-15.7-23.8-28.8-30.4c-9.8-4.9-20.2-8.6-30.1-13.3
	c-4.8-2.2-9.6-4.8-13.6-8.2c-9-7.7-9-19.7-1-28.4c9.9-10.8,34-12.3,43.8,2.2c1.7,2.6,3.6,5,5.4,7.6c7.7-4.6,15-8.9,22.2-13.2
	c-0.2-0.8-0.3-1.4-0.5-1.8c-16.5-29.5-54.9-38.7-83.1-20c-29.5,19.6-30.2,57.9-1.1,78.1c6.2,4.3,13.4,7.3,20.2,10.7
	c9.7,4.8,19.9,8.6,29,14.4c11.7,7.5,15.2,21.5,10.3,35c-4.5,12.5-16.5,20.3-30,19.6c-14.6-0.7-24.7-8.7-28.2-22.5
	c-1-4-1.7-8-2.6-12.2C285.6,136.1,276.4,138.1,267.2,140.2z M570.2,48c0-11.2,0.1-21-0.2-30.8c0-1.5-1.9-3.5-3.4-4.2
	c-34.6-17.1-69-16.7-100.8,5.5c-32.5,22.8-47.1,55.4-41.5,95c8.8,62.9,78.2,102.7,142.8,69.3c1.2-0.6,2.8-2,2.8-3
	c0.2-10.4,0.1-20.8,0.1-32.5c-15.8,13.7-32.4,22.4-52.8,21.4c-20.5-1-37.2-9.3-50.2-25.2c-21.1-25.8-20.6-65.7,1.1-91.5
	c10.1-12,22.5-20.2,38.1-23.1C530.3,24.4,550.8,32.3,570.2,48z M834.8,18c25.6,62.7,50.8,124.3,76.4,187
	C939.3,137.9,967,71.8,994.9,5c-9.3,0-17.8,0.2-26.2-0.1c-3.6-0.1-5.2,1.1-6.5,4.4c-15.6,38.9-31.4,77.8-47.1,116.7
	c-0.9,2.2-1.8,4.4-3.2,7.6c-1.3-3.3-2.2-5.4-3.1-7.5C893.4,87.6,878,49.1,862.8,10.6c-1.8-4.5-4-6.2-8.7-5.7
	c-3.8,0.4-7.6,0.1-11.2,0.1c-0.6-1.5-1-2.8-1.1-3c-4.3,1.5-7.9,2.8-11.9,4.2c5.6,6.7,0.8,12.7-2.6,18.9c-1,1.9-2.2,3.8-2.9,5.8
	c-0.4,1.1-0.1,2.5-0.1,3.7c0.9-0.7,2.2-1.2,2.7-2.1C829.6,28.1,831.8,23.7,834.8,18z M1342.6,5.2c0,62,0,123.7,0,185.6
	c9.4,0,18.4,0,27.8,0c0-62,0-123.7,0-185.6C1361.1,5.2,1352.2,5.2,1342.6,5.2z"/>
<path d="M709.3,1.2c5.2,1.1,10.4,2.1,15.6,3.4c37.9,9.3,68,55,46.7,98.3c-17,34.5-40.5,64.2-65.8,94c-27-32.7-54.4-64-69.1-103.6
	c-14.4-38.8,15.4-84.6,57.7-90.3c2.7-0.4,5.4-1.1,8.2-1.7C704.8,1.2,707.1,1.2,709.3,1.2z M753.9,74.9c0-26.9-21.7-48.4-48.5-48.2
	C679,27,657.9,48.4,657.9,75c0,27,21.6,48.4,48.4,48.2C732.8,122.9,754,101.5,753.9,74.9z"/>
<path d="M137.2,138.2c-6.1,8.2-11.6,17-18.6,24.4c-14.9,15.9-33.3,25.6-55.2,27c-20.9,1.3-41.9,1.4-63.4,2.1c0-62.9,0-124.5,0-186
	c0.3-0.3,0.6-0.6,0.9-0.6c22.9,0.7,46.2-0.7,68.8,2.5c43.5,6.3,72.8,41.1,73.8,85.1c0.3,11.5-2,23.1-3.9,34.5 M28.2,165.7
	c12.4-1,24.4-1,36.1-3.2c7.9-1.5,16.1-4.9,22.8-9.4c23.8-15.9,31.1-39.4,27.3-66.6c-3.6-26.1-18.2-44.1-44-51.3
	c-9.8-2.7-20.3-2.9-30.6-3.8c-2.4-0.2-5,1.2-8.4,2c-0.2-0.1-1.5-1-3.3-2.2C28.2,76.1,28.2,120.1,28.2,165.7z"/>
<path d="M1245.2,112.2c19.1,26.3,37.9,52.1,57.3,78.9c-11.8,0-22.5,0.1-33.3-0.2c-1.4,0-3-2.3-4.1-3.9c-16-22.8-31.8-45.6-47.9-68.4
	c-1.3-1.9-3.9-3-5.8-4.4c-0.5,0.4-0.9,0.8-1.4,1.2c0,24.9,0,49.8,0,75.2c-9.5,0-18.5,0-28,0c0-61.6,0-123.3,0-185.4
	c1.5-0.1,2.9-0.3,4.4-0.3c17.3,0.6,34.7,0.2,51.9,2.1c26.4,2.9,44.1,20.2,47.2,44.1c3.8,28.4-10.5,51.2-37.4,59.9
	C1247.4,111.3,1246.6,111.7,1245.2,112.2z M1210.2,89.9c11.9,0.4,23.5,0.8,34.3-4.8c17-8.8,19.5-36.1,4.1-46.8
	c-11.7-8.2-25.1-6.9-38.4-6.8C1210.2,51.3,1210.2,70.4,1210.2,89.9z"/>
<path d="M1130.1,102.2c-12.3,0-24.3,0-36.3,0c-11.8,0-23.6,0-35.7,0c0,21,0,41.4,0,62.4c24.5,0,49,0,74,0c0,9,0,17.3,0,26.1
	c-33.9,0-67.8,0-102.1,0c0-61.7,0-123.4,0-185.4c34,0,67.9,0,102.1,0c0,8.5,0,16.9,0,25.9c-24.6,0-49.2,0-74.1,0
	c0,15.1,0,29.5,0,44.6c23.9,0,47.7,0,71.9,0C1130.1,84.7,1130.1,93,1130.1,102.2z"/>
<path d="M267.2,140.2c9.1-2,18.3-4.1,27.9-6.2c0.9,4.2,1.6,8.3,2.6,12.2c3.5,13.8,13.5,21.8,28.2,22.5c13.6,0.7,25.5-7.1,30-19.6
	c4.9-13.5,1.4-27.5-10.3-35c-9-5.8-19.3-9.6-29-14.4c-6.8-3.4-14-6.4-20.2-10.7c-29.1-20.2-28.4-58.5,1.1-78.1
	c28.2-18.7,66.6-9.5,83.1,20c0.2,0.4,0.3,0.9,0.5,1.8c-7.2,4.3-14.5,8.6-22.2,13.2c-1.8-2.6-3.7-5.1-5.4-7.6
	c-9.9-14.5-33.9-13-43.8-2.2c-8,8.7-8,20.7,1,28.4c4,3.4,8.8,5.9,13.6,8.2c9.9,4.6,20.3,8.4,30.1,13.3c13.2,6.6,24.1,15.8,28.8,30.4
	c13,40.4-15,77.4-54.3,78.6C289.8,195.9,270.3,169.1,267.2,140.2z"/>
<path d="M570.2,48c-19.4-15.7-39.9-23.6-63.9-19.1c-15.5,2.9-28,11.1-38.1,23.1c-21.7,25.8-22.2,65.6-1.1,91.5
	c13,15.9,29.7,24.2,50.2,25.2c20.4,1,37-7.7,52.8-21.4c0,11.7,0.1,22.1-0.1,32.5c0,1-1.6,2.4-2.8,3c-64.6,33.4-134-6.4-142.8-69.3
	c-5.6-39.7,8.9-72.3,41.5-95C497.6-3.8,532-4.1,566.7,13c1.5,0.7,3.3,2.7,3.4,4.2C570.3,27,570.2,36.8,570.2,48z"/>
<path d="M830,4.2c4-1.4,7.5-2.7,11.9-4.2c0.1,0.2,0.5,1.4,1.1,3c3.5,0,7.4,0.3,11.2-0.1c4.7-0.5,6.9,1.2,8.7,5.7
	c15.2,38.6,30.6,77,45.9,115.5c0.8,2.1,1.7,4.2,3.1,7.5c1.4-3.2,2.3-5.4,3.2-7.6c15.7-38.9,31.5-77.7,47.1-116.7
	c1.3-3.3,3-4.5,6.5-4.4c8.4,0.3,16.9,0.1,26.2,0.1c-27.9,66.8-55.6,132.9-83.7,200.1c-25.6-62.7-50.8-124.4-76.4-187"/>
<path d="M1462,5.1c18-0.3,36-0.1,54-0.1c1.8,0,3.6,0,5.7,0c0,8.9,0,17.3,0,26.3c-13.9,0-27.7,0-42.2,0c0,53.6,0,106.3,0,159.5
	c-9.4,0-18.5,0-28.1,0c0-52.8,0-105.7,0-159.3c-14.5,0-28.6,0-42.8,0c0-9.1,0-17.3,0-26.3c11.3,0,22.4,0,34,0"/>
<path d="M1342.6,5.2c9.6,0,18.5,0,27.8,0c0,61.9,0,123.6,0,185.6c-9.3,0-18.4,0-27.8,0C1342.6,128.9,1342.6,67.3,1342.6,5.2z"/>
<path d="M190.9,184.6c0-59.6,0-119.3,0-179.3c9.3,0,18.4,0,27.8,0c0,61.7,0,123.3,0,185.6c-2,0.1-4.1,0.1-6.1,0.3
	c-6.2,0.4-12.4,0.9-18.7,1.3c-0.8,0-1.9-0.6-2.5-1.3"/>
<path fill="none" d="M28.2,165.7c0-45.6,0-89.7,0-134.4c1.8,1.2,3.1,2,3.3,2.2c3.4-0.9,6-2.2,8.4-2c10.2,0.9,20.8,1.1,30.6,3.8
	c25.7,7.2,40.3,25.1,44,51.3c3.8,27.2-3.5,50.7-27.3,66.6c-6.7,4.5-14.9,7.9-22.8,9.4C52.6,164.8,40.5,164.8,28.2,165.7z"/>
<path fill="none" d="M1210.2,89.9c0-19.5,0-38.6,0-58.4c13.3-0.1,26.7-1.3,38.4,6.8c15.4,10.8,13,38-4.1,46.8
	C1233.7,90.6,1222.1,90.3,1210.2,89.9z"/>
</svg>
