<?xml version="1.0" encoding="utf-8"?>
<!-- Generator: Adobe Illustrator 18.1.0, SVG Export Plug-In . SVG Version: 6.00 Build 0)  -->
<!DOCTYPE svg PUBLIC "-//W3C//DTD SVG 1.1//EN" "http://www.w3.org/Graphics/SVG/1.1/DTD/svg11.dtd">
<svg version="1.1" id="Calque_1" xmlns="http://www.w3.org/2000/svg" xmlns:xlink="http://www.w3.org/1999/xlink" x="0px" y="0px"
	 viewBox="-206 209 85 85" enable-background="new -206 209 85 85" xml:space="preserve">
<g>
	<path fill="#3f5158" d="M-158.1,235.3h-8.3c-3.7,0-6.2,0.8-8.5,2.7c-1.8,1.6-2.9,3.8-2.9,6c0,3.4,2.6,7.1,7.5,7.1
		c0.5,0,1,0,1.4-0.1l-0.1,0.2c-0.2,0.5-0.4,0.9-0.4,1.6c0,1.3,0.6,2.2,1.3,3l0.1,0.1l-0.1,0c-2,0.1-5.7,0.4-8.5,2.1
		c-3.2,1.9-3.5,4.7-3.5,5.5c0,3.2,3,6.5,9.7,6.5c7.8,0,11.8-4.3,11.8-8.5c0-3.1-1.8-4.7-3.8-6.3l-1.6-1.3c-0.5-0.4-1.1-0.9-1.1-1.9
		c0-1,0.6-1.6,1.2-2.1l0.1-0.1c1.8-1.4,3.8-3,3.8-6.4c0-3.5-2.2-5.2-3.2-6.1h2.7c0,0,0.1,0,0.1,0l2.4-1.5c0.1,0,0.1-0.1,0.1-0.2
		C-158,235.4-158.1,235.3-158.1,235.3z M-168.1,268c-4.7,0-7.9-2.2-7.9-5.5c0-2.2,1.3-3.7,3.9-4.6c2.1-0.7,4.7-0.7,4.7-0.7
		c0.4,0,0.7,0,1,0c3.3,2.4,4.9,3.6,4.9,6C-161.5,266.1-164.1,268-168.1,268z M-168.2,249.9c-4,0-5.6-5.2-5.6-8c0-1.4,0.3-2.5,1-3.3
		c0.7-0.9,2-1.5,3.2-1.5c3.7,0,5.7,4.9,5.7,8.3c0,0.5,0,2.2-1.1,3.3C-165.9,249.4-167.1,249.9-168.2,249.9z"/>
	<path fill="#3f5158" d="M-146.6,251.5h-4.3v-4.3c0-0.1-0.1-0.2-0.2-0.2h-1.9c-0.1,0-0.2,0.1-0.2,0.2v4.3h-4.3
		c-0.1,0-0.2,0.1-0.2,0.2v1.9c0,0.1,0.1,0.2,0.2,0.2h4.3v4.4c0,0.1,0.1,0.2,0.2,0.2h1.9c0.1,0,0.2-0.1,0.2-0.2v-4.4h4.3
		c0.1,0,0.2-0.1,0.2-0.2v-1.9C-146.4,251.5-146.5,251.5-146.6,251.5z"/>
</g>
</svg>
