<?xml version="1.0" encoding="utf-8"?>
<!-- Generator: Adobe Illustrator 18.1.0, SVG Export Plug-In . SVG Version: 6.00 Build 0)  -->
<!DOCTYPE svg PUBLIC "-//W3C//DTD SVG 1.1//EN" "http://www.w3.org/Graphics/SVG/1.1/DTD/svg11.dtd">
<svg version="1.1" id="Mode_Isolation" xmlns="http://www.w3.org/2000/svg" xmlns:xlink="http://www.w3.org/1999/xlink" x="0px"
	 y="0px" viewBox="0 0 49.4 52" enable-background="new 0 0 49.4 52" xml:space="preserve">
<path fill="#FFFFFF" d="M48.4,15.2c0.6,0,1-0.4,1-1V8.7c0-0.6-0.4-1-1-1h-1.3V5c0-2.8-2.2-5-5-5h-28v0H5C2.2,0,0,2.2,0,5v42
	c0,2.8,2.2,5,5,5h3.8v0c0.1,0,0.2,0,0.3,0h32.9c2.8,0,5-2.2,5-5V33.5h1.3c0.6,0,1-0.4,1-1V27c0-0.6-0.4-1-1-1h-1.3v-1.9h1.3
	c0.6,0,1-0.4,1-1v-5.5c0-0.6-0.4-1-1-1h-1.3v-1.5H48.4z M5,50c-1.7,0-3-1.3-3-3V5c0-1.7,1.3-3,3-3h7.1v48H8.9l0,0H5z M45.1,47
	c0,1.7-1.3,3-3,3l-28,0V2h28c1.7,0,3,1.3,3,3V47z M31.5,25.3c1.9-0.8,3.2-2.7,3.2-4.9c0-2.9-2.4-5.3-5.3-5.3c-2.9,0-5.3,2.4-5.3,5.3
	c0,2.2,1.3,4,3.2,4.9c-3.5,0.9-6.1,3.8-6.5,7.5l0,0.5l0.4,0.3c2.3,2.1,5.2,3.3,8.2,3.3c3.1,0,6-1.2,8.2-3.3l0.4-0.3l0-0.5
	C37.6,29.1,35,26.2,31.5,25.3z M26.1,20.4c0-1.8,1.5-3.3,3.3-3.3c1.8,0,3.3,1.5,3.3,3.3c0,1.8-1.5,3.3-3.3,3.3
	C27.6,23.7,26.1,22.3,26.1,20.4z M29.4,34.9c-2.4,0-4.7-0.8-6.5-2.4c0.5-3.2,3.2-5.5,6.5-5.5c3.3,0,6,2.3,6.5,5.5
	C34,34.1,31.7,34.9,29.4,34.9z"/>
</svg>
