<?xml version="1.0" encoding="utf-8"?>
<!-- Generator: Adobe Illustrator 18.1.0, SVG Export Plug-In . SVG Version: 6.00 Build 0)  -->
<!DOCTYPE svg PUBLIC "-//W3C//DTD SVG 1.1//EN" "http://www.w3.org/Graphics/SVG/1.1/DTD/svg11.dtd">
<svg version="1.1" id="Mode_Isolation" xmlns="http://www.w3.org/2000/svg" xmlns:xlink="http://www.w3.org/1999/xlink" x="0px"
	 y="0px" viewBox="0 0 37.9 51.9" enable-background="new 0 0 37.9 51.9" xml:space="preserve">
<path fill="#FFFFFF" d="M19,51.9h-0.1c-1.7,0-3-1.4-3.1-1.6C8.1,41.1,0,30.5,0,19.7C0,8.8,8.5,0,19,0c10.5,0,19,8.8,19,19.7
	c0,10.8-8.1,21.4-15.8,30.5l0,0C22.2,50.2,20.9,51.9,19,51.9z M19,2C9.6,2,2,9.9,2,19.7C2,29.8,9.9,40.1,17.3,49
	c0.2,0.2,0.9,0.9,1.6,0.9H19c0.7,0,1.4-0.7,1.6-0.9c7.4-8.9,15.3-19.2,15.3-29.3C35.9,9.9,28.3,2,19,2z M19,31
	c-6.8,0-12.3-5.5-12.3-12.3c0-6.8,5.5-12.3,12.3-12.3c6.8,0,12.3,5.5,12.3,12.3C31.3,25.5,25.8,31,19,31z M19,8.4
	C13.3,8.4,8.6,13,8.6,18.7C8.6,24.4,13.3,29,19,29c5.7,0,10.3-4.6,10.3-10.3C29.3,13,24.7,8.4,19,8.4z"/>
</svg>
