<?xml version="1.0" encoding="utf-8"?>
<!-- Generator: Adobe Illustrator 18.1.0, SVG Export Plug-In . SVG Version: 6.00 Build 0)  -->
<!DOCTYPE svg PUBLIC "-//W3C//DTD SVG 1.1//EN" "http://www.w3.org/Graphics/SVG/1.1/DTD/svg11.dtd">
<svg version="1.1" id="Mode_Isolation" xmlns="http://www.w3.org/2000/svg" xmlns:xlink="http://www.w3.org/1999/xlink" x="0px"
	 y="0px" viewBox="0 0 48.9 46.7" enable-background="new 0 0 48.9 46.7" xml:space="preserve">
<path fill="#FFFFFF" d="M38.4,46.7c-0.6,0-1.4-0.3-2.2-0.8l-8.8-5.8c-1.5-1-4.5-1-6,0L12.7,46c-1.6,1-3,1-3.7,0.1
	c-0.5-0.7-0.6-1.6-0.2-2.9L11.6,33c0.5-1.9-0.3-4.5-1.9-5.7l-8.2-6.5c-1.7-1.3-1.6-2.5-1.4-3c0.2-0.6,0.8-1.5,2.9-1.6l10.5-0.5
	c1.9-0.1,4.2-1.7,4.9-3.5L22,2.3c0.7-2,1.8-2.3,2.4-2.3c0.6,0,1.7,0.3,2.4,2.3l3.7,9.8c0.7,1.8,2.9,3.4,4.9,3.5l10.5,0.5
	c2.1,0.1,2.7,1,2.9,1.6c0.2,0.6,0.2,1.7-1.4,3l-8.2,6.5c-1.5,1.2-2.4,3.8-1.9,5.7l2.8,10.1c0.3,1.3,0.3,2.2-0.2,2.9
	C39.6,46.5,39,46.7,38.4,46.7z M24.5,37.4c1.5,0,3,0.4,4.1,1.1l8.8,5.8c0.6,0.4,0.9,0.4,1,0.5c0-0.1,0.1-0.5-0.1-1.1l-2.8-10.1
	c-0.7-2.7,0.4-6.1,2.5-7.8l8.2-6.5c0.5-0.4,0.7-0.7,0.7-0.8c-0.1-0.1-0.4-0.2-1.1-0.2l-10.5-0.5c-2.8-0.1-5.7-2.2-6.6-4.8L25,3
	c-0.2-0.6-0.5-0.9-0.6-1c-0.1,0.1-0.3,0.3-0.6,1l-3.7,9.8c-1,2.6-3.9,4.7-6.6,4.8L3.1,18.1c-0.7,0-1,0.2-1.1,0.2
	c0,0.1,0.2,0.4,0.7,0.8l8.2,6.5c2.2,1.7,3.3,5.1,2.5,7.8l-2.8,10.1c-0.2,0.7-0.1,1-0.1,1.1c0.2,0,0.6-0.1,1-0.4l8.8-5.8
	C21.5,37.8,22.9,37.4,24.5,37.4z"/>
</svg>
