<?xml version="1.0" encoding="utf-8"?>
<!-- Generator: Adobe Illustrator 18.1.0, SVG Export Plug-In . SVG Version: 6.00 Build 0)  -->
<!DOCTYPE svg PUBLIC "-//W3C//DTD SVG 1.1//EN" "http://www.w3.org/Graphics/SVG/1.1/DTD/svg11.dtd">
<svg version="1.1" id="Mode_Isolation" xmlns="http://www.w3.org/2000/svg" xmlns:xlink="http://www.w3.org/1999/xlink" x="0px"
	 y="0px" viewBox="0 0 40.9 49.3" enable-background="new 0 0 40.9 49.3" xml:space="preserve">
<path fill="#FFFFFF" d="M29,28.9l-0.1-0.1c-0.3-0.1-0.6-0.3-0.9-0.4c-0.3-0.1-0.7-0.3-1-0.4c-0.3-0.1-0.6-0.2-0.8-0.3
	c-0.4-0.1-0.9-0.2-1.3-0.3c-0.2,0-0.3-0.1-0.5-0.1l-0.1,0c-0.3-0.1-0.5-0.1-0.8-0.1l-0.1,0c0,0,0,0,0,0l-0.1,0
	c-0.2,0-0.4-0.1-0.7-0.1l-0.8-0.1c-1-0.1-1.9-0.1-2.9,0l-0.3,0l-0.1,0l-0.3,0c-0.3,0-0.6,0.1-0.9,0.1l-0.1,0c-0.2,0-0.4,0.1-0.6,0.1
	c-0.2,0-0.4,0.1-0.7,0.1c-0.4,0.1-0.8,0.2-1.2,0.3c-0.3,0.1-0.6,0.2-0.9,0.3l-0.2,0.1c-0.6,0.2-1.3,0.5-1.9,0.8l-0.2,0.1l0,0
	C4.6,32.4,0,39.7,0,47.5c0,0.2,0,0.4,0,0.5l0.1,1.2h40.8l0.1-1.2c0-0.2,0-0.4,0-0.5C40.9,39.6,36.3,32.3,29,28.9z M2,47.3
	c0.1-7,4.2-13.5,10.6-16.5l0.2-0.1l0,0c0.5-0.2,1-0.4,1.5-0.6l0.2-0.1c0.3-0.1,0.6-0.2,0.9-0.3c0.4-0.1,0.7-0.2,1.1-0.3
	c0.2,0,0.4-0.1,0.6-0.1c0.2,0,0.3-0.1,0.5-0.1l0.1,0c0.3,0,0.6-0.1,0.9-0.1l0.7-0.1c0.9-0.1,1.7-0.1,2.7,0l0.6,0.1
	c0.2,0,0.3,0,0.5,0.1l0.2,0c0.2,0,0.5,0.1,0.7,0.1l0.1,0c0.1,0,0.3,0.1,0.4,0.1c0.4,0.1,0.8,0.2,1.2,0.3c0.3,0.1,0.5,0.2,0.8,0.2
	c0.3,0.1,0.6,0.2,0.9,0.3c0.3,0.1,0.6,0.2,0.9,0.4l0.1,0c6.5,3,10.7,9.5,10.8,16.6H2z M15.5,24.5c0.2,0.1,0.3,0.1,0.5,0.2l0.3,0.1
	c0.1,0,0.3,0.1,0.4,0.1c1.2,0.4,2.4,0.6,3.7,0.6l0.1,0c0.4,0,0.9,0,1.3-0.1c0.1,0,0.3,0,0.4-0.1l0.3,0c0.2,0,0.4,0,0.5-0.1
	c0.1,0,0.2-0.1,0.4-0.1l0.3-0.1c0.2,0,0.3-0.1,0.5-0.1c0.1,0,0.2-0.1,0.3-0.1l0.3-0.1c0.2-0.1,0.4-0.1,0.6-0.2
	c0.1,0,0.2-0.1,0.2-0.1l0.1,0c0.3-0.1,0.5-0.2,0.8-0.4l0.2-0.1c0.3-0.2,0.6-0.3,0.9-0.6c0.2-0.1,0.3-0.2,0.5-0.3l0.5-0.4
	c2.9-2.4,4.6-6,4.6-9.7l0-0.1c0-7-5.7-12.8-12.8-12.8C13.8,0,8.2,5.3,7.8,12l0,0.2c0,0.2,0,0.4,0,0.6C7.7,17.9,10.8,22.5,15.5,24.5z
	 M9.8,12.3l0-0.2C10.1,6.4,14.8,2,20.5,2c5.9,0,10.8,4.8,10.8,10.7l0,0.1c0,3.2-1.4,6.2-3.9,8.3l-0.5,0.4c-0.1,0.1-0.2,0.2-0.3,0.3
	c-0.2,0.2-0.5,0.3-0.8,0.5l-0.1,0.1c-0.2,0.1-0.4,0.2-0.7,0.3l-0.3,0.1c-0.2,0.1-0.3,0.1-0.5,0.2L23.9,23c-0.1,0-0.1,0.1-0.2,0.1
	c-0.1,0-0.2,0.1-0.4,0.1l-0.4,0.1c-0.1,0-0.2,0-0.2,0.1c-0.1,0-0.3,0-0.4,0.1l-0.4,0.1c-0.1,0-0.2,0-0.3,0c-0.3,0-0.7,0.1-1,0.1
	l-0.1,0h0c-1.1,0-2.2-0.2-3.2-0.5c-0.1,0-0.2-0.1-0.3-0.1l-0.4-0.1c-0.1,0-0.2-0.1-0.3-0.1c-4-1.7-6.6-5.6-6.6-9.9
	C9.7,12.6,9.8,12.4,9.8,12.3z"/>
</svg>
